<svg width="14.000000" height="14.000000" viewBox="0 0 14 14" fill="none" xmlns="http://www.w3.org/2000/svg" xmlns:xlink="http://www.w3.org/1999/xlink">
	<desc>
			Created with Pixso.
	</desc>
	<defs>
		<clipPath id="clip370726_237">
			<rect id="star" width="14.000000" height="14.000000" fill="white" fill-opacity="0"/>
		</clipPath>
	</defs>
	<g clip-path="url(#clip370726_237)">
		<path id="Vector" d="M13.6962 6.37195C13.9717 6.10339 14.069 5.70923 13.9501 5.3429C13.831 4.97644 13.5207 4.71497 13.1394 4.65942L9.74957 4.16687C9.60522 4.14587 9.48047 4.0553 9.41595 3.92432L7.90045 0.853027C7.73029 0.507935 7.38495 0.293457 7.00006 0.293457C6.61542 0.293457 6.27002 0.507935 6.09985 0.853027L4.58411 3.92468C4.51959 4.05554 4.39459 4.14612 4.25024 4.16711L0.860413 4.65967C0.479431 4.71497 0.168823 4.97681 0.0496826 5.34314C-0.0692139 5.70959 0.0280762 6.10376 0.30365 6.37231L2.75629 8.76294C2.8609 8.86499 2.90881 9.01196 2.88416 9.1554L2.30554 12.5312C2.25421 12.8284 2.33215 13.1174 2.52448 13.3453C2.8233 13.7006 3.34503 13.8087 3.76215 13.5895L6.7937 11.9955C6.92041 11.9291 7.07996 11.9297 7.20636 11.9955L10.2382 13.5895C10.3857 13.6672 10.5429 13.7064 10.7053 13.7064C11.0016 13.7064 11.2825 13.5747 11.4756 13.3453C11.6682 13.1174 11.7458 12.8279 11.6946 12.5312L11.1157 9.1554C11.091 9.0116 11.1389 8.86499 11.2435 8.76294L13.6962 6.37195Z" fill="#E9E9E9" fill-opacity="1.000000" fill-rule="nonzero"/>
	</g>
</svg>
